<?xml version="1.0" standalone="no"?>
<!DOCTYPE svg PUBLIC "-//W3C//DTD SVG 20010904//EN"
 "http://www.w3.org/TR/2001/REC-SVG-20010904/DTD/svg10.dtd">
<svg version="1.0" xmlns="http://www.w3.org/2000/svg"
 width="1000.000000pt" height="881.000000pt" viewBox="0 0 1000.000000 881.000000"
 preserveAspectRatio="xMidYMid meet">
<metadata>
Created by potrace 1.14, written by Peter Selinger 2001-2017
</metadata>
<g transform="translate(0.000000,881.000000) scale(0.100000,-0.100000)"
fill="#000000" stroke="none">
<path d="M640 8795 c0 -41 115 -230 265 -435 90 -124 164 -227 164 -230 0 -3
-54 -66 -120 -140 -135 -151 -238 -284 -305 -392 -44 -72 -44 -73 -44 -164 0
-50 -3 -105 -6 -122 -5 -23 -75 -107 -246 -294 -132 -145 -258 -285 -279 -311
-49 -62 -72 -132 -57 -183 13 -48 58 -94 92 -94 17 0 50 -20 95 -58 78 -65
135 -95 268 -141 103 -35 143 -38 228 -16 152 39 524 194 864 361 129 63 235
113 237 112 12 -13 120 -210 176 -322 118 -235 198 -448 258 -685 61 -243 70
-318 80 -701 11 -437 17 -546 36 -663 31 -197 67 -293 239 -647 178 -368 211
-464 319 -946 31 -137 86 -359 121 -494 35 -135 87 -339 115 -455 28 -115 71
-291 96 -389 25 -99 47 -205 50 -235 7 -69 -14 -196 -58 -350 l-33 -115 -80
-22 c-175 -48 -176 -48 -266 -164 -99 -128 -115 -160 -97 -198 7 -15 23 -28
36 -30 12 -2 22 -7 22 -12 0 -4 11 -11 25 -14 24 -6 25 -9 18 -44 -9 -46 -6
-118 7 -142 15 -28 172 -45 425 -45 121 0 241 4 266 8 l46 8 133 332 c158 393
188 461 231 523 l32 47 -27 246 c-91 845 -104 1425 -48 2050 l17 184 110 29
c639 168 1134 337 1555 531 354 162 500 211 670 223 203 15 375 -47 572 -206
82 -67 1696 -1596 1981 -1879 225 -222 315 -353 358 -519 37 -144 17 -301 -44
-354 -18 -15 -37 -27 -43 -28 -18 0 -215 -221 -230 -257 -17 -39 -18 -87 -3
-115 20 -37 88 -58 216 -64 316 -16 470 106 490 389 3 42 7 76 8 75 3 -3 65
-400 65 -416 0 -6 -10 -14 -23 -18 -36 -11 -149 -88 -194 -132 -60 -58 -77
-96 -77 -169 -1 -74 19 -107 84 -140 57 -30 96 -29 314 4 l179 27 12 30 c37
89 50 199 50 421 0 202 -5 264 -60 757 l-59 538 -109 81 c-452 338 -789 873
-922 1464 -37 167 -53 295 -65 525 -28 553 -39 655 -90 848 -56 209 -138 365
-261 497 -35 37 -125 121 -200 185 -190 165 -281 266 -331 367 l-41 83 13 69
c24 130 -6 281 -82 409 -88 149 -322 325 -502 377 -233 68 -491 -64 -611 -310
-55 -114 -78 -226 -79 -395 l-1 -145 -265 -27 c-259 -26 -283 -27 -1015 -30
-685 -3 -759 -1 -850 15 -226 40 -442 109 -728 232 l-168 71 -80 148 c-427
788 -1074 1416 -1869 1815 -128 64 -451 201 -473 201 -4 0 -4 -15 0 -32 l6
-33 -54 52 c-94 89 -210 151 -354 188 -74 19 -95 19 -95 0z"/>
</g>
</svg>
